name D:\school\WTK\thesis\model\3dpredictsim\Results\Batchsim_tmt_linear_v2\Pog_s1_tmt_bCst_d05_k2000_ig24_act.mot
datacolumns 128
datarows 4
range 1.16754955 1.20257604
endheader
time	pelvis_tilt	pelvis_list	pelvis_rotation	pelvis_tx	pelvis_ty	pelvis_tz	hip_flexion_l	hip_adduction_l	hip_rotation_l	hip_flexion_r	hip_adduction_r	hip_rotation_r	knee_angle_l	knee_angle_r	ankle_angle_l	ankle_angle_r	subtalar_angle_l	subtalar_angle_r	tmt_angle_l	tmt_angle_r	mtp_angle_l	mtp_angle_r	lumbar_extension	lumbar_bending	lumbar_rotation	arm_flex_l	arm_add_l	arm_rot_l	arm_flex_r	arm_add_r	arm_rot_r	elbow_flex_l	elbow_flex_r	pro_sup_l	pro_sup_r	glut_med1_l/activation	glut_med2_l/activation	glut_med3_l/activation	glut_min1_l/activation	glut_min2_l/activation	glut_min3_l/activation	semimem_l/activation	semiten_l/activation	bifemlh_l/activation	bifemsh_l/activation	sar_l/activation	add_long_l/activation	add_brev_l/activation	add_mag1_l/activation	add_mag2_l/activation	add_mag3_l/activation	tfl_l/activation	pect_l/activation	grac_l/activation	glut_max1_l/activation	glut_max2_l/activation	glut_max3_l/activation	iliacus_l/activation	psoas_l/activation	quad_fem_l/activation	gem_l/activation	peri_l/activation	rect_fem_l/activation	vas_med_l/activation	vas_int_l/activation	vas_lat_l/activation	med_gas_l/activation	lat_gas_l/activation	soleus_l/activation	tib_post_l/activation	flex_dig_l/activation	flex_hal_l/activation	tib_ant_l/activation	per_brev_l/activation	per_long_l/activation	per_tert_l/activation	ext_dig_l/activation	ext_hal_l/activation	ercspn_l/activation	intobl_l/activation	extobl_l/activation	glut_med1_r/activation	glut_med2_r/activation	glut_med3_r/activation	glut_min1_r/activation	glut_min2_r/activation	glut_min3_r/activation	semimem_r/activation	semiten_r/activation	bifemlh_r/activation	bifemsh_r/activation	sar_r/activation	add_long_r/activation	add_brev_r/activation	add_mag1_r/activation	add_mag2_r/activation	add_mag3_r/activation	tfl_r/activation	pect_r/activation	grac_r/activation	glut_max1_r/activation	glut_max2_r/activation	glut_max3_r/activation	iliacus_r/activation	psoas_r/activation	quad_fem_r/activation	gem_r/activation	peri_r/activation	rect_fem_r/activation	vas_med_r/activation	vas_int_r/activation	vas_lat_r/activation	med_gas_r/activation	lat_gas_r/activation	soleus_r/activation	tib_post_r/activation	flex_dig_r/activation	flex_hal_r/activation	tib_ant_r/activation	per_brev_r/activation	per_long_r/activation	per_tert_r/activation	ext_dig_r/activation	ext_hal_r/activation	ercspn_r/activation	intobl_r/activation	extobl_r/activation	
          1.16754955	         -0.22491368	          1.62833915	          9.36643753	          1.45943694	          0.87794031	         -0.00410241	        -17.84499356	         -0.06156309	          6.77409197	         29.66615695	         -3.04738147	          0.53959062	        -15.35809245	        -15.30288067	        -22.52239727	        -30.09039645	          5.08608717	          1.13737509	          0.43792171	         -0.02135399	         39.41412846	         -0.54915685	          0.95526048	         -5.10375900	         -2.33199903	          1.66795851	        -13.50644681	          9.42553949	        -19.65452046	        -13.45962540	         15.09046932	         32.72918906	         23.12521478	         86.51662706	         86.51662706	          0.17394862	          0.05000034	          0.05000039	          0.17068920	          0.09553804	          0.05000042	          0.05000204	          0.05000034	          0.05000052	          0.05000020	          0.07314367	          0.29424555	          0.25381604	          0.23132922	          0.05000372	          0.05000120	          0.13050004	          0.16136337	          0.07100383	          0.05000226	          0.05000127	          0.05000099	          0.29789374	          0.44777708	          0.08243237	          0.05973678	          0.05018670	          0.17358242	          0.07735567	          0.08732747	          0.06789786	          0.05000009	          0.07789123	          0.05000006	          0.11418539	          0.09084369	          0.10730617	          0.13778873	          0.25478300	          0.18904957	          0.55084813	          0.50875697	          0.14633088	          0.05699934	          0.05000044	          0.05317110	          0.06973717	          0.09146613	          0.12767998	          0.05972901	          0.05972415	          0.05010184	          0.12163836	          0.07698976	          0.09442401	          0.08704539	          0.05972991	          0.09400639	          0.12164044	          0.18533050	          0.18308654	          0.14229209	          0.05000034	          0.05002508	          0.11235812	          0.10075582	          0.12841145	          0.16425501	          0.08546103	          0.08523697	          0.13295843	          0.05000666	          0.08061074	          0.05000008	          0.05000023	          0.05000028	          0.05000024	          0.05972970	          0.05972976	          0.05638772	          0.05744252	          0.05321685	          0.05838561	          0.05000009	          0.12891792	          0.08177905	          0.10049383	          0.08595665	          0.06216573	          0.05000003	          0.14945654	          0.12640827	
          1.17922504	         -0.19238702	          1.76803696	          9.35369708	          1.47910858	          0.87725336	         -0.00372424	        -17.48036106	         -0.13951024	          6.54507821	         29.24949959	         -2.92161885	          0.74816308	        -17.51246106	        -16.09527718	        -25.06949720	        -28.64017448	          5.64695786	          1.20775393	          0.33948306	         -0.01585848	         38.90612824	         -0.13417914	          1.24304176	         -4.90402115	         -2.41996886	          1.44304036	        -13.54766707	          9.93632000	        -21.39244688	        -13.44970756	         15.35379525	         33.30187183	         23.53915828	         86.51662706	         86.51662706	          0.14561349	          0.05000072	          0.05000105	          0.14288503	          0.07997555	          0.05000803	          0.05000426	          0.05000016	          0.05000025	          0.05000015	          0.06122917	          0.24631497	          0.30547831	          0.19364726	          0.05981836	          0.05000821	          0.10924242	          0.13507891	          0.05972854	          0.05000717	          0.05000696	          0.05002653	          0.24936870	          0.37483703	          0.06900487	          0.05000717	          0.05000033	          0.14530692	          0.06475497	          0.07310242	          0.05683776	          0.05000009	          0.06520332	          0.05000004	          0.09558531	          0.07604590	          0.08982669	          0.22598113	          0.28838170	          0.19152767	          0.70088081	          0.62606137	          0.12249456	          0.05732600	          0.05000001	          0.05130343	          0.15640786	          0.07697218	          0.14146009	          0.05000028	          0.05000024	          0.05000032	          0.10182423	          0.06444864	          0.07904293	          0.07286626	          0.05000042	          0.07869405	          0.10182608	          0.17345236	          0.16873854	          0.12850020	          0.05000010	          0.05000488	          0.09405589	          0.10898833	          0.13121263	          0.14437478	          0.07153998	          0.07135245	          0.19564806	          0.05000103	          0.06928113	          0.05000002	          0.08545858	          0.09224374	          0.09101543	          0.05000011	          0.05000017	          0.05000003	          0.05000001	          0.05000007	          0.05000004	          0.07351424	          0.10791803	          0.06845776	          0.35138444	          0.13983342	          0.16869148	          0.05000002	          0.12511099	          0.10581715	
          1.19090054	         -0.15342258	          1.89378222	          9.29844674	          1.49874023	          0.87599119	         -0.00333031	        -16.91340641	         -0.19040830	          6.33481547	         28.69181091	         -2.73495657	          0.97848335	        -20.09341129	        -17.37934202	        -26.97166202	        -26.37222637	          6.20164212	          1.31760676	          0.27459874	          0.06772470	         36.82270496	          1.20989111	          1.51903114	         -4.66719909	         -2.49470184	          1.20331309	        -13.60207288	         10.41174993	        -23.03621334	        -13.45855492	         15.71062451	         33.85570730	         23.80634762	         86.51662706	         86.51662706	          0.12189398	          0.05000015	          0.05000009	          0.11960999	          0.06694809	          0.05000018	          0.05972443	          0.05000036	          0.05000134	          0.05000007	          0.05125552	          0.21463068	          0.33624384	          0.44631280	          0.05008128	          0.14531668	          0.09144753	          0.11307581	          0.05000034	          0.05000208	          0.05000152	          0.05000172	          0.20874809	          0.31377841	          0.05776448	          0.05001840	          0.05000136	          0.12163732	          0.05420910	          0.07147840	          0.05686341	          0.05588856	          0.05974253	          0.05022864	          0.08001506	          0.06365860	          0.07519451	          0.25783823	          0.29216920	          0.18175837	          0.60809914	          0.76135791	          0.31795363	          0.06100341	          0.05972975	          0.07953274	          0.13093013	          0.15208539	          0.25813576	          0.05000304	          0.05000778	          0.07992406	          0.08523769	          0.05395037	          0.06616733	          0.06099681	          0.05000017	          0.06587535	          0.08523929	          0.14519811	          0.14125215	          0.10756837	          0.07135275	          0.05000096	          0.07873484	          0.12898805	          0.13726204	          0.12085710	          0.05988660	          0.05972966	          0.17794498	          0.05000206	          0.19544819	          0.07135367	          0.27204997	          0.26091464	          0.24748427	          0.05000000	          0.05000001	          0.05000000	          0.17046610	          0.13650733	          0.20770212	          0.06153922	          0.10182352	          0.09266987	          0.29414611	          0.11705543	          0.14121271	          0.05000000	          0.10473119	          0.08858019	
          1.20257604	         -0.11312254	          1.99588652	          9.19680076	          1.51812258	          0.87447703	         -0.00291184	        -16.13155670	         -0.22402322	          6.14183404	         27.87345660	         -2.49486827	          1.23302327	        -23.02824324	        -18.84431802	        -28.38460089	        -23.23223730	          6.74286936	          1.51486596	          0.20166676	          0.19563048	         33.21481662	          3.47457051	          1.77260518	         -4.38922187	         -2.55514772	          0.98758160	        -13.65209383	         10.86617278	        -24.52060690	        -13.47260207	         16.16548175	         34.32672602	         23.86950816	         86.51662706	         86.51662706	          0.12163165	          0.05000032	          0.05000019	          0.10012631	          0.05604277	          0.05000061	          0.07933365	          0.05000098	          0.09050134	          0.05000006	          0.05000035	          0.17966869	          0.42042289	          0.37361129	          0.14702050	          0.12164634	          0.07655132	          0.09465771	          0.05001574	          0.05000505	          0.05001495	          0.08524045	          0.17474432	          0.26266585	          0.05142820	          0.05000052	          0.05000009	          0.10182336	          0.07135170	          0.05983519	          0.07134740	          0.05000056	          0.05001119	          0.05972887	          0.06698112	          0.05328921	          0.06294586	          0.32127273	          0.28292915	          0.17724921	          0.50904437	          0.82359199	          0.26616099	          0.07669107	          0.05000017	          0.06657737	          0.19740332	          0.31547654	          0.49939040	          0.07325837	          0.08545625	          0.25822180	          0.07135303	          0.05000014	          0.05993507	          0.07135243	          0.07135246	          0.05514497	          0.07135437	          0.12154631	          0.11824328	          0.12849325	          0.05972985	          0.05972551	          0.06590966	          0.20814416	          0.18861356	          0.12260751	          0.05263500	          0.05000021	          0.14895923	          0.14517496	          0.35538558	          0.05973061	          0.22773474	          0.21841329	          0.20717064	          0.10182350	          0.10182367	          0.11542584	          0.22924789	          0.30985119	          0.23713504	          0.05151487	          0.08523711	          0.07757453	          0.24623154	          0.09798783	          0.11821006	          0.05000004	          0.08767113	          0.07415103	
